<svg xmlns="http://www.w3.org/2000/svg" width="157" height="157" viewBox="0 0 157 157" version="1.1">
	<path d="M 72.074 0.810 C 68.416 1.934, 68.271 4, 71.851 4 C 73.511 4, 77.947 4.647, 81.709 5.439 C 104.786 10.293, 122.778 27.767, 128.608 50.988 C 130.776 59.622, 130.072 75.889, 127.133 85.072 C 123.222 97.291, 113.921 109.140, 102.359 116.631 C 99.136 118.719, 96.312 120.556, 96.083 120.714 C 95.854 120.871, 95.928 121.261, 96.247 121.580 C 97.345 122.678, 109.263 118.971, 115.978 115.442 C 136.164 104.835, 148.952 83.440, 148.992 60.208 C 149.003 54.134, 146.230 41.468, 143.722 36.132 C 141.004 30.350, 130.223 18.905, 122.648 13.761 C 115.369 8.818, 106.284 4.647, 98.280 2.572 C 91.276 0.758, 75.663 -0.293, 72.074 0.810 M 58 7.637 C 37.412 10.643, 22.908 19.685, 12.501 36 C 2.335 51.937, -0.948 67.253, 2.428 83 C 4.138 90.975, 7.628 99.291, 9.064 98.812 C 9.718 98.594, 10.226 93.836, 10.382 86.479 C 10.594 76.456, 11.052 73.399, 13.190 67.758 C 16.769 58.317, 21.526 50.857, 28.204 44.214 C 43.100 29.396, 63.399 23.295, 84.046 27.429 C 96.565 29.936, 105.885 34.918, 115.765 44.385 C 120.310 48.740, 124.313 52.021, 124.659 51.674 C 125.674 50.660, 122.340 42.991, 118.001 36.357 C 105.172 16.743, 79.570 4.488, 58 7.637 M 73.715 34.068 C 67.222 35.122, 57.125 39.989, 52.197 44.441 C 43.680 52.136, 38.949 63.117, 39.063 74.932 L 39.127 81.500 41.313 75 C 45.413 62.813, 52.647 53.788, 62.251 48.876 C 80.426 39.582, 104.695 44.711, 116.117 60.261 C 118.426 63.404, 119.038 63.853, 118.486 62 C 112.965 43.475, 92.896 30.954, 73.715 34.068 M 47.449 38.027 C 24.536 50.080, 11.872 70.382, 11.908 95 C 11.953 124.651, 29.249 146.554, 59 154.634 C 68.227 157.140, 89.187 157.112, 97.750 154.583 C 101.188 153.567, 104 152.401, 104 151.991 C 104 151.582, 98.713 151.024, 92.250 150.751 C 73.183 149.948, 60.553 144.547, 47.816 131.750 C 36.304 120.185, 30 104.527, 30 87.500 C 30 69.761, 35.664 56.328, 48.660 43.250 C 57.652 34.200, 57.333 32.827, 47.449 38.027 M 149.659 71.510 C 148.299 87.590, 143.514 98.975, 133.657 109.581 C 122.466 121.622, 109.326 127.797, 92.912 128.729 C 70.877 129.980, 54.023 121.905, 38.164 102.500 L 34.895 98.500 35.385 102.254 C 36.563 111.270, 46.837 126.632, 56.500 133.823 C 78.295 150.043, 106.579 151.282, 128.532 136.979 C 149.957 123.020, 161.244 92.512, 153.959 68.250 C 151.992 61.698, 150.385 62.916, 149.659 71.510" stroke="none" fill="#2b3355" fill-rule="evenodd"/>
</svg>