<svg width="23" height="21" viewBox="0 0 23 21" fill="none" xmlns="http://www.w3.org/2000/svg">
<path d="M19.6004 1.11435H16.9252V0.742899C16.9252 0.54587 16.8451 0.356911 16.7026 0.21759C16.5601 0.0782694 16.3668 0 16.1652 0C15.9636 0 15.7703 0.0782694 15.6278 0.21759C15.4853 0.356911 15.4052 0.54587 15.4052 0.742899V1.11435H7.3948V0.742899C7.3948 0.54587 7.31473 0.356911 7.1722 0.21759C7.02967 0.0782694 6.83636 0 6.6348 0C6.43324 0 6.23993 0.0782694 6.0974 0.21759C5.95487 0.356911 5.8748 0.54587 5.8748 0.742899V1.11435H3.1996C2.35163 1.11631 1.53897 1.44645 0.939358 2.03257C0.339751 2.61868 0.00200704 3.41306 0 4.24195V17.2724C0.00200704 18.1013 0.339751 18.8957 0.939358 19.4818C1.53897 20.0679 2.35163 20.398 3.1996 20.4H19.6004C20.4484 20.398 21.261 20.0679 21.8606 19.4818C22.4602 18.8957 22.798 18.1013 22.8 17.2724V4.24195C22.798 3.41306 22.4602 2.61868 21.8606 2.03257C21.261 1.44645 20.4484 1.11631 19.6004 1.11435ZM3.1996 2.60015H5.8748V2.9716C5.8748 3.16862 5.95487 3.35758 6.0974 3.4969C6.23993 3.63622 6.43324 3.71449 6.6348 3.71449C6.83636 3.71449 7.02967 3.63622 7.1722 3.4969C7.31473 3.35758 7.3948 3.16862 7.3948 2.9716V2.60015H15.4052V2.9716C15.4052 3.16862 15.4853 3.35758 15.6278 3.4969C15.7703 3.63622 15.9636 3.71449 16.1652 3.71449C16.3668 3.71449 16.5601 3.63622 16.7026 3.4969C16.8451 3.35758 16.9252 3.16862 16.9252 2.9716V2.60015H19.6004C20.0459 2.60015 20.4731 2.77312 20.7881 3.08102C21.103 3.38892 21.28 3.80652 21.28 4.24195V6.00262H1.52V4.24195C1.52 3.80652 1.69696 3.38892 2.01194 3.08102C2.32693 2.77312 2.75414 2.60015 3.1996 2.60015ZM19.6004 18.9439H3.1996C2.97645 18.944 2.75553 18.9005 2.54974 18.8162C2.34396 18.7318 2.15743 18.6082 2.00106 18.4526C1.8447 18.297 1.72162 18.1125 1.63902 17.9098C1.55642 17.7072 1.51596 17.4905 1.52 17.2724V7.48842H21.28V17.2724C21.284 17.4905 21.2436 17.7072 21.161 17.9098C21.0784 18.1125 20.9553 18.297 20.7989 18.4526C20.6426 18.6082 20.456 18.7318 20.2503 18.8162C20.0445 18.9005 19.8236 18.944 19.6004 18.9439Z" fill="black"/>
</svg>
