<svg width="20" height="20" viewBox="0 0 20 20" fill="none" xmlns="http://www.w3.org/2000/svg">
<path fill-rule="evenodd" clip-rule="evenodd" d="M0.25 2.5C0.25 1.25736 1.25736 0.25 2.5 0.25H17.5C18.7427 0.25 19.75 1.25737 19.75 2.5V10C19.75 10.4142 19.4142 10.75 19 10.75C18.5858 10.75 18.25 10.4142 18.25 10V2.5C18.25 2.08578 17.9142 1.75 17.5 1.75H2.5C2.08579 1.75 1.75 2.08579 1.75 2.5V17.5C1.75 17.9142 2.08578 18.25 2.5 18.25H10C10.4142 18.25 10.75 18.5858 10.75 19C10.75 19.4142 10.4142 19.75 10 19.75H2.5C1.25737 19.75 0.25 18.7427 0.25 17.5V2.5Z" fill="#1D2B50"/>
<path fill-rule="evenodd" clip-rule="evenodd" d="M14 11.75C12.7574 11.75 11.75 12.7574 11.75 14C11.75 15.2426 12.7574 16.25 14 16.25C15.2426 16.25 16.25 15.2426 16.25 14C16.25 12.7574 15.2426 11.75 14 11.75ZM10.25 14C10.25 11.9289 11.9289 10.25 14 10.25C16.0711 10.25 17.75 11.9289 17.75 14C17.75 16.0711 16.0711 17.75 14 17.75C11.9289 17.75 10.25 16.0711 10.25 14Z" fill="#1D2B50"/>
<path fill-rule="evenodd" clip-rule="evenodd" d="M15.9144 15.5315C16.1731 15.208 16.6451 15.1556 16.9685 15.4143L19.4685 17.4143C19.792 17.6731 19.8444 18.1451 19.5857 18.4685C19.3269 18.792 18.855 18.8444 18.5315 18.5856L16.0315 16.5856C15.7081 16.3269 15.6556 15.8549 15.9144 15.5315Z" fill="#1D2B50"/>
<path fill-rule="evenodd" clip-rule="evenodd" d="M4.25 6C4.25 5.58579 4.58579 5.25 5 5.25H15C15.4142 5.25 15.75 5.58579 15.75 6C15.75 6.41421 15.4142 6.75 15 6.75H5C4.58579 6.75 4.25 6.41421 4.25 6Z" fill="#1D2B50"/>
<path fill-rule="evenodd" clip-rule="evenodd" d="M4.25 10C4.25 9.5858 4.58579 9.25 5 9.25H9C9.4142 9.25 9.75 9.5858 9.75 10C9.75 10.4142 9.4142 10.75 9 10.75H5C4.58579 10.75 4.25 10.4142 4.25 10Z" fill="#1D2B50"/>
</svg>
