<svg width="24" height="24" viewBox="0 0 24 24" fill="none" xmlns="http://www.w3.org/2000/svg">
<path d="M3.13424 8.9907C0.1536 13.3893 1.31489 19.3746 5.72779 22.3543C8.57939 24.2763 12.2568 24.5343 15.3536 23.0251L15.2891 22.7542C10.0375 23.5797 5.10843 20.0067 4.26972 14.7567C3.70198 11.1578 5.21166 7.54599 8.16649 5.43051L8.25681 5.18542C6.16649 5.83039 4.36004 7.17191 3.13424 8.9907Z" fill="#C2C3C5"/>
<path d="M5.19864 15.1696C7.79218 19.5037 13.4051 20.9226 17.7535 18.3428C20.7599 16.5498 22.476 13.2089 22.1922 9.72608L22.4373 9.68738C24.2309 14.4085 21.8696 19.6972 17.147 21.4902C12.4244 23.2832 7.13412 20.9226 5.34057 16.2015C5.19864 15.8274 5.08251 15.4404 4.99219 15.0535L5.19864 15.1696Z" fill="#1D2B50"/>
<path d="M17.7274 10.4355C16.3209 7.30098 12.6306 5.89496 9.49515 7.30098C7.34031 8.26842 5.92096 10.3581 5.81774 12.7187H5.63709C4.75967 9.39066 6.74677 5.98526 10.0758 5.12101C13.4048 4.25676 16.8113 6.23034 17.6758 9.55835C17.7532 9.86793 17.8177 10.1904 17.8564 10.5258L17.7274 10.4355Z" fill="#DEE0E2"/>
<path d="M17.1337 1.07064L17.0304 1.01904H17.0175L16.9143 0.967443L16.8111 0.915846L16.7079 0.864249C15.9853 0.50307 15.2111 0.245086 14.4111 0.0902948L14.1917 0.0515969L14.0885 0.0386976L13.9724 0.0257986L13.8692 0.0128993H13.8563H13.753H13.6498H13.624H13.5208H13.5079H13.4304H13.4046H13.3143H13.2885H13.2111H13.1853H13.095H12.0885H12.0111H11.9853H11.8821H11.7788H11.753H11.6756L11.624 0H11.5466H11.5337H11.4304H11.4046H11.3272H11.2885L11.2111 0.0128993H11.1724H11.1079H11.0563H10.9917H10.953L10.8756 0.116093L10.8111 0.128992H10.7595H10.695H10.6563H10.5917H10.5659L10.4885 0.141892H10.4627L10.3724 0.16769H10.3595L10.2692 0.193489H10.2434L10.153 0.270884L10.0498 0.296682L10.0627 0.554667H10.153C10.9788 0.567566 11.7917 0.696559 12.5788 0.928745L12.6821 0.954544L12.7853 0.993241C17.6885 2.55405 20.3982 7.80404 18.824 12.7057C18.7982 12.7831 18.7724 12.8605 18.7466 12.9379C18.7208 13.0153 18.695 13.0798 18.6691 13.1572C17.8175 15.3759 16.1659 17.1818 14.0498 18.2266L13.9208 18.433C16.9143 18.0331 19.5208 16.2014 20.9272 13.5313L21.0304 13.3249C21.0691 13.2604 21.0949 13.183 21.1337 13.1185C21.1724 13.054 21.1982 12.9766 21.224 12.9121C21.2885 12.7702 21.3401 12.6284 21.3917 12.4994C21.4175 12.4349 21.4433 12.3704 21.4691 12.293V12.2801C21.4949 12.2156 21.5079 12.1511 21.5337 12.0866V12.0608L21.5982 11.8673C21.6111 11.8028 21.6369 11.7383 21.6498 11.6738V11.648C21.6627 11.5835 21.6885 11.519 21.7014 11.4545V11.4287L21.7401 11.2352V11.2223C21.753 11.1578 21.7659 11.0933 21.7788 11.0288V11.003L21.8175 10.7967C21.8175 10.7193 21.8433 10.6548 21.8562 10.5774C21.9208 10.1388 21.9595 9.70023 21.9595 9.24875C21.9853 7.81694 21.6756 6.39802 21.0562 5.0952C21.0175 5.0307 20.9917 4.96621 20.953 4.90171L20.8498 4.70822C20.8111 4.64373 20.7853 4.57923 20.7466 4.52763V4.51473L20.6433 4.33414V4.30835L20.5272 4.14066L20.5143 4.11486L20.3982 3.94717L20.3853 3.92137L20.2691 3.75368L20.2562 3.72788L20.1272 3.56019L20.0756 3.52149L19.9466 3.3538L19.9337 3.328C19.8949 3.27641 19.8433 3.22481 19.7917 3.16031L19.7788 3.13451L19.6369 2.96682L19.624 2.95393L19.482 2.78624V2.77334L19.3272 2.60565C19.2756 2.55405 19.224 2.50245 19.1595 2.43796L19.095 2.39926L19.0691 2.37346L19.0433 2.34766L19.0304 2.33476L19.0046 2.30896L18.9788 2.28317L18.953 2.25737C18.424 1.78009 17.8562 1.38022 17.2369 1.03194L17.1337 1.07064Z" fill="#C2C3C5"/>
<path d="M14.605 2.77334C14.3856 2.63145 14.1663 2.48956 13.934 2.37347C9.37917 -0.128984 3.66305 1.52212 1.15983 6.07555C-0.32404 8.78439 -0.388557 12.0479 0.992086 14.8083L1.23725 14.7438C0.372733 9.62284 3.83079 4.77273 8.95337 3.92138C12.463 3.32801 16.0114 4.78563 18.1146 7.66216L18.3598 7.75245C17.7146 5.71437 16.3856 3.96007 14.605 2.77334Z" fill="#1D2B50"/>
</svg>
