<svg width="73" height="73" viewBox="0 0 73 73" fill="none" xmlns="http://www.w3.org/2000/svg">
<g filter="url(#filter0_d_382_20066)">
<circle cx="36.5" cy="32.5" r="28.5" fill="url(#paint0_linear_382_20066)"/>
</g>
<path fill-rule="evenodd" clip-rule="evenodd" d="M28.0421 39.2503C27.5702 39.7222 27.5703 40.4872 28.0422 40.9591C28.5142 41.4309 29.2792 41.4309 29.7511 40.959L36.4999 34.209L43.2493 40.9584C43.7212 41.4302 44.4863 41.4302 44.9581 40.9584C45.43 40.4865 45.43 39.7214 44.9581 39.2495L38.2086 32.5L44.9576 25.7498C45.4294 25.2779 45.4294 24.5128 44.9574 24.041C44.4855 23.5691 43.7204 23.5692 43.2486 24.0411L36.4997 30.7912L29.7503 24.0417C29.2784 23.5698 28.5133 23.5698 28.0414 24.0417C27.5695 24.5136 27.5695 25.2787 28.0414 25.7506L34.7911 32.5001L28.0421 39.2503Z" fill="white"/>
<defs>
<filter id="filter0_d_382_20066" x="0" y="0" width="73" height="73" filterUnits="userSpaceOnUse" color-interpolation-filters="sRGB">
<feFlood flood-opacity="0" result="BackgroundImageFix"/>
<feColorMatrix in="SourceAlpha" type="matrix" values="0 0 0 0 0 0 0 0 0 0 0 0 0 0 0 0 0 0 127 0" result="hardAlpha"/>
<feOffset dy="4"/>
<feGaussianBlur stdDeviation="4"/>
<feComposite in2="hardAlpha" operator="out"/>
<feColorMatrix type="matrix" values="0 0 0 0 0.848333 0 0 0 0 0.848333 0 0 0 0 0.848333 0 0 0 0.29 0"/>
<feBlend mode="normal" in2="BackgroundImageFix" result="effect1_dropShadow_382_20066"/>
<feBlend mode="normal" in="SourceGraphic" in2="effect1_dropShadow_382_20066" result="shape"/>
</filter>
<linearGradient id="paint0_linear_382_20066" x1="61.9999" y1="134.5" x2="9.99979" y2="4.00019" gradientUnits="userSpaceOnUse">
<stop stop-color="#72A3DA"/>
<stop offset="1" stop-color="#1D2B50"/>
</linearGradient>
</defs>
</svg>
