<svg width="23" height="23" viewBox="0 0 23 23" fill="none" xmlns="http://www.w3.org/2000/svg">
<path fill-rule="evenodd" clip-rule="evenodd" d="M4.79197 16.8541C4.41774 17.2284 4.4178 17.8351 4.79209 18.2094C5.16637 18.5836 5.77315 18.5836 6.14737 18.2093L11.4999 12.8558L16.8529 18.2088C17.2271 18.583 17.8339 18.583 18.2081 18.2088C18.5824 17.8345 18.5824 17.2277 18.2081 16.8535L12.8551 11.5004L18.2077 6.14683C18.5819 5.77254 18.5819 5.16577 18.2076 4.79155C17.8333 4.41732 17.2265 4.41737 16.8523 4.79166L11.4997 10.1452L6.14672 4.79212C5.77247 4.41787 5.16568 4.41787 4.79144 4.79212C4.41718 5.16638 4.41718 5.77316 4.79144 6.14742L10.1446 11.5005L4.79197 16.8541Z" fill="#9F9F9F"/>
</svg>
