<svg width="18" height="22" viewBox="0 0 18 22" fill="none" xmlns="http://www.w3.org/2000/svg">
<path fill-rule="evenodd" clip-rule="evenodd" d="M17.75 19C17.75 19.729 17.46 20.429 16.945 20.945C16.429 21.46 15.729 21.75 15 21.75H3C2.271 21.75 1.571 21.46 1.055 20.945C0.54 20.429 0.25 19.729 0.25 19V3C0.25 2.271 0.54 1.571 1.055 1.055C1.571 0.54 2.271 0.25 3 0.25H11.586C12.05 0.25 12.495 0.434 12.823 0.763L17.237 5.177C17.566 5.505 17.75 5.95 17.75 6.414V19ZM16.25 19V6.414C16.25 6.348 16.224 6.284 16.177 6.237L11.763 1.823C11.716 1.776 11.652 1.75 11.586 1.75H3C2.668 1.75 2.351 1.882 2.116 2.116C1.882 2.351 1.75 2.668 1.75 3V19C1.75 19.332 1.882 19.649 2.116 19.884C2.351 20.118 2.668 20.25 3 20.25H15C15.332 20.25 15.649 20.118 15.884 19.884C16.118 19.649 16.25 19.332 16.25 19Z" fill="#1D2B50"/>
<path fill-rule="evenodd" clip-rule="evenodd" d="M11.25 1.5C11.25 1.086 11.586 0.75 12 0.75C12.414 0.75 12.75 1.086 12.75 1.5V5C12.75 5.138 12.862 5.25 13 5.25H16.5C16.914 5.25 17.25 5.586 17.25 6C17.25 6.414 16.914 6.75 16.5 6.75H13C12.033 6.75 11.25 5.967 11.25 5V1.5Z" fill="#1D2B50"/>
<path fill-rule="evenodd" clip-rule="evenodd" d="M5 10.25C4.586 10.25 4.25 9.914 4.25 9.5C4.25 9.086 4.586 8.75 5 8.75H13C13.414 8.75 13.75 9.086 13.75 9.5C13.75 9.914 13.414 10.25 13 10.25H5Z" fill="#1D2B50"/>
<path fill-rule="evenodd" clip-rule="evenodd" d="M5 13.75C4.586 13.75 4.25 13.414 4.25 13C4.25 12.586 4.586 12.25 5 12.25H13C13.414 12.25 13.75 12.586 13.75 13C13.75 13.414 13.414 13.75 13 13.75H5Z" fill="#1D2B50"/>
<path fill-rule="evenodd" clip-rule="evenodd" d="M5 17.25C4.586 17.25 4.25 16.914 4.25 16.5C4.25 16.086 4.586 15.75 5 15.75H9.5C9.914 15.75 10.25 16.086 10.25 16.5C10.25 16.914 9.914 17.25 9.5 17.25H5Z" fill="#1D2B50"/>
</svg>
