<svg width="621" height="381" viewBox="0 0 621 381" fill="none" xmlns="http://www.w3.org/2000/svg">
<g clip-path="url(#clip0_382_21150)">
<path d="M448.851 18.7565C451.134 16.469 454.286 15.0577 457.767 15.0577H470.307C472.175 6.44989 479.818 0.00341797 488.973 0.00341797C498.127 0.00341797 505.77 6.44989 507.638 15.0577H511.007C514.488 15.0577 517.64 16.4724 519.923 18.7565C522.206 21.0405 523.615 24.2007 523.615 27.6881C523.615 31.5472 521.89 35.0005 519.168 37.3187C516.969 39.1902 514.121 40.322 511.007 40.322H457.77C454.289 40.322 451.138 38.9073 448.854 36.6232C446.574 34.3392 445.162 31.179 445.162 27.6916C445.162 24.2041 446.574 21.0474 448.854 18.7599L448.851 18.7565Z" fill="#E9F3FC"/>
<path d="M295.56 37.7789C293.416 35.6312 290.455 34.3017 287.181 34.3017H275.4C273.644 26.2154 266.464 20.1576 257.864 20.1576C249.265 20.1576 242.081 26.2154 240.329 34.3017H237.164C233.893 34.3017 230.929 35.6312 228.786 37.7789C226.642 39.9266 225.314 42.8924 225.314 46.1719C225.314 49.7957 226.938 53.0411 229.493 55.2195C231.559 56.9785 234.237 58.0387 237.16 58.0387H287.181C290.452 58.0387 293.416 56.7092 295.56 54.5615C297.703 52.4138 299.031 49.448 299.031 46.1685C299.031 42.8924 297.703 39.9231 295.56 37.7755V37.7789Z" fill="#E9F3FC"/>
<path d="M621 198.624V265.826C560.014 255.248 478.039 245.576 382.155 245.576C170.494 245.576 4.48836 292.696 4.48836 292.696C-7.83057 266.313 5.81894 190.333 37.9468 172.545C70.0781 154.76 97.9795 190.333 123.346 177.627C148.712 164.922 124.976 52.6013 163.93 45.3742C202.881 38.147 227.41 110.412 275.018 110.412C322.626 110.412 315.415 38.147 371.089 35.2562C426.759 32.3653 425.289 109.242 458.778 109.242C492.267 109.242 478.689 78.4145 531.184 77.5077C583.682 76.6009 598.162 186.31 620.646 198.44C620.765 198.504 620.881 198.566 621 198.624Z" fill="url(#paint0_linear_382_21150)"/>
<path d="M128.668 301.849C122.566 301.665 115.944 299.517 116.09 289.699C116.237 279.881 123.349 278.354 124.077 271.008C124.805 263.661 124.839 256.826 128.668 256.751C132.5 256.679 130.073 259.819 131.86 263.225C133.643 266.63 137.101 270.987 136.43 277.352C135.76 283.717 140.282 286.154 140.048 291.36C139.809 296.565 136.563 302.088 128.671 301.846L128.668 301.849Z" fill="#DAEEFF"/>
<path d="M130.924 276.779C130.815 276.68 130.652 276.687 130.55 276.793C130.448 276.898 130.455 277.069 130.56 277.168C130.577 277.185 132.149 278.77 131.989 284.201C131.85 288.895 129.42 296.159 128.651 298.351C127.93 296.64 126.997 294.755 126.215 293.166C125.684 292.092 125.228 291.169 124.979 290.582C124.074 288.448 125.452 283.962 125.466 283.918C125.51 283.778 125.432 283.628 125.292 283.584C125.153 283.539 125.003 283.618 124.959 283.757C124.898 283.948 123.506 288.475 124.489 290.79C124.744 291.39 125.204 292.321 125.738 293.402C127.167 296.296 129.332 300.666 129.298 302.367C129.25 304.726 128.968 308.112 128.964 308.146C128.951 308.292 129.059 308.422 129.206 308.435C129.213 308.435 129.219 308.435 129.23 308.435C129.366 308.435 129.481 308.33 129.495 308.19C129.495 308.156 129.784 304.754 129.832 302.378C129.846 301.617 129.488 300.434 128.957 299.088C129.308 298.123 132.367 289.56 132.527 284.214C132.697 278.494 131.003 276.844 130.931 276.776L130.924 276.779Z" fill="#6AC1FF"/>
<path d="M505.938 215.158C501.558 215.025 496.808 213.484 496.91 206.437C497.015 199.391 502.12 198.293 502.641 193.023C503.161 187.749 503.185 182.843 505.935 182.792C508.684 182.741 506.945 184.994 508.225 187.439C509.504 189.883 511.985 193.009 511.505 197.581C511.026 202.149 514.272 203.897 514.102 207.634C513.932 211.37 511.601 215.331 505.935 215.161L505.938 215.158Z" fill="#DAEEFF"/>
<path d="M507.558 197.165C507.48 197.093 507.36 197.096 507.289 197.175C507.218 197.25 507.221 197.373 507.296 197.444C507.306 197.454 508.436 198.593 508.32 202.493C508.221 205.861 506.476 211.077 505.924 212.648C505.407 211.421 504.737 210.068 504.175 208.929C503.794 208.159 503.467 207.494 503.287 207.075C502.637 205.544 503.627 202.323 503.638 202.292C503.668 202.19 503.614 202.084 503.512 202.053C503.41 202.023 503.304 202.077 503.273 202.179C503.229 202.316 502.232 205.565 502.937 207.228C503.12 207.658 503.45 208.326 503.835 209.103C504.863 211.179 506.414 214.319 506.391 215.539C506.357 217.234 506.152 219.664 506.152 219.688C506.142 219.794 506.22 219.886 506.326 219.896C506.333 219.896 506.336 219.896 506.343 219.896C506.442 219.896 506.523 219.821 506.534 219.722C506.534 219.698 506.741 217.254 506.775 215.55C506.785 215.004 506.53 214.155 506.149 213.187C506.401 212.495 508.596 206.349 508.712 202.51C508.834 198.406 507.619 197.219 507.565 197.171L507.558 197.165Z" fill="#6AC1FF"/>
<path d="M163.169 222.19C159.592 222.081 155.709 220.823 155.794 215.065C155.879 209.308 160.052 208.411 160.477 204.105C160.902 199.8 160.923 195.791 163.169 195.747C165.415 195.702 163.992 197.546 165.04 199.541C166.088 201.535 168.113 204.092 167.722 207.825C167.331 211.558 169.982 212.986 169.842 216.037C169.702 219.088 167.8 222.327 163.169 222.187V222.19Z" fill="#DAEEFF"/>
<path d="M164.493 207.491C164.428 207.433 164.333 207.436 164.275 207.497C164.217 207.559 164.217 207.658 164.282 207.719C164.292 207.729 165.214 208.657 165.119 211.844C165.037 214.595 163.611 218.856 163.162 220.142C162.74 219.139 162.192 218.031 161.733 217.101C161.423 216.473 161.154 215.928 161.008 215.587C160.477 214.336 161.287 211.704 161.294 211.677C161.321 211.595 161.273 211.506 161.192 211.483C161.11 211.455 161.022 211.503 160.998 211.585C160.964 211.697 160.147 214.353 160.722 215.71C160.872 216.061 161.141 216.606 161.454 217.24C162.291 218.938 163.56 221.502 163.54 222.497C163.513 223.881 163.346 225.865 163.346 225.886C163.339 225.971 163.404 226.046 163.489 226.056C163.492 226.056 163.499 226.056 163.502 226.056C163.584 226.056 163.652 225.995 163.659 225.913C163.659 225.893 163.829 223.898 163.856 222.504C163.867 222.057 163.656 221.362 163.342 220.575C163.547 220.009 165.343 214.987 165.435 211.851C165.534 208.496 164.54 207.528 164.499 207.491H164.493Z" fill="#6AC1FF"/>
<path d="M555.006 321.754C548.751 321.564 541.965 319.365 542.112 309.301C542.261 299.238 549.554 297.67 550.299 290.143C551.045 282.612 551.079 275.603 555.006 275.531C558.933 275.456 556.449 278.675 558.276 282.165C560.103 285.656 563.646 290.122 562.962 296.647C562.278 303.172 566.913 305.671 566.668 311.006C566.423 316.341 563.098 322 555.006 321.758V321.754Z" fill="#DAEEFF"/>
<path d="M557.32 296.057C557.211 295.955 557.041 295.962 556.936 296.071C556.834 296.18 556.837 296.354 556.946 296.456C556.963 296.473 558.576 298.099 558.409 303.666C558.266 308.476 555.775 315.922 554.989 318.172C554.251 316.419 553.294 314.486 552.491 312.857C551.947 311.756 551.477 310.808 551.222 310.208C550.293 308.019 551.709 303.421 551.722 303.376C551.767 303.233 551.688 303.08 551.542 303.035C551.399 302.991 551.246 303.07 551.202 303.216C551.14 303.414 549.711 308.054 550.722 310.426C550.984 311.04 551.457 311.998 552.001 313.102C553.468 316.068 555.683 320.551 555.649 322.293C555.602 324.71 555.309 328.184 555.306 328.218C555.292 328.368 555.404 328.501 555.554 328.515C555.561 328.515 555.571 328.515 555.578 328.515C555.717 328.515 555.837 328.405 555.85 328.266C555.85 328.232 556.146 324.744 556.194 322.307C556.211 321.526 555.843 320.312 555.299 318.935C555.66 317.943 558.794 309.165 558.957 303.687C559.131 297.823 557.395 296.132 557.32 296.064V296.057Z" fill="#6AC1FF"/>
<path d="M531.596 368.407C531.596 375.361 449.019 381 347.153 381C245.287 381 162.709 375.361 162.709 368.407C162.709 361.453 245.287 355.814 347.153 355.814C449.019 355.814 531.596 361.453 531.596 368.407Z" fill="url(#paint1_radial_382_21150)"/>
<path d="M199.796 317.763C201.021 324.492 203.362 329.687 206.823 333.338C210.28 336.993 215.324 338.817 221.956 338.817C229.596 338.817 235.412 336.12 239.414 330.73C243.412 325.341 245.413 318.557 245.413 310.379C245.413 302.2 243.538 295.563 239.791 290.027C236.045 284.494 230.208 281.726 222.283 281.726C218.533 281.726 215.289 282.196 212.553 283.137C207.725 284.872 204.087 288.094 201.637 292.798L173.953 291.496L184.979 204.555H271.419V230.822H207.262L201.64 265.229C206.401 262.117 210.114 260.058 212.785 259.042C217.26 257.378 222.705 256.547 229.126 256.547C242.109 256.547 253.434 260.924 263.099 269.682C272.766 278.439 277.599 291.172 277.599 307.887C277.599 322.43 272.943 335.421 263.636 346.852C254.326 358.286 240.404 364.003 221.857 364.003C206.918 364.003 194.65 359.987 185.057 351.955C175.461 343.923 170.118 332.527 169.039 317.766H199.809L199.796 317.763Z" fill="#7D9BEB"/>
<path d="M389.786 222.572C397.841 236.682 401.867 256.727 401.867 282.704C401.867 308.681 397.841 328.692 389.786 342.727C381.731 356.765 367.7 363.784 347.694 363.784C327.688 363.784 313.654 356.765 305.602 342.727C297.544 328.692 293.521 308.681 293.521 282.704C293.521 256.727 297.547 236.682 305.602 222.572C313.654 208.462 327.684 201.406 347.694 201.406C367.704 201.406 381.731 208.459 389.786 222.572ZM329.491 324.223C332.452 333.812 338.52 338.602 347.694 338.602C356.869 338.602 362.878 333.809 365.734 324.223C368.589 314.633 370.015 300.796 370.015 282.704C370.015 264.612 368.589 249.708 365.734 240.589C362.878 231.473 356.869 226.912 347.694 226.912C338.52 226.912 332.452 231.47 329.491 240.589C326.527 249.708 325.05 263.746 325.05 282.704C325.05 301.662 326.531 314.633 329.491 324.223Z" fill="#7D9BEB"/>
<path d="M513.194 222.572C521.249 236.682 525.278 256.727 525.278 282.704C525.278 308.681 521.249 328.692 513.194 342.727C505.139 356.765 491.108 363.784 471.102 363.784C451.095 363.784 437.061 356.765 429.01 342.727C420.952 328.692 416.926 308.681 416.926 282.704C416.926 256.727 420.952 236.682 429.01 222.572C437.061 208.462 451.092 201.406 471.102 201.406C491.112 201.406 505.139 208.459 513.194 222.572ZM452.899 324.223C455.86 333.812 461.927 338.602 471.102 338.602C480.276 338.602 486.286 333.809 489.141 324.223C491.996 314.633 493.422 300.796 493.422 282.704C493.422 264.612 491.996 249.708 489.141 240.589C486.286 231.473 480.276 226.912 471.102 226.912C461.927 226.912 455.86 231.47 452.899 240.589C449.938 249.708 448.458 263.746 448.458 282.704C448.458 301.662 449.938 314.633 452.899 324.223Z" fill="#7D9BEB"/>
<path d="M432.237 359.404L433.261 364.633H415.739L414.619 359.404H432.237Z" fill="#FFAA9D"/>
<path d="M433.26 364.633L434.09 368.71C434.141 368.966 433.947 369.208 433.685 369.208H414.043C413.805 369.208 413.648 368.959 413.75 368.745L415.734 364.633H433.257H433.26Z" fill="#0B2252"/>
<path d="M405.621 359.404L406.646 364.633H389.123L388.004 359.404H405.621Z" fill="#FFAA9D"/>
<path d="M406.645 364.633L407.475 368.71C407.526 368.966 407.332 369.208 407.07 369.208H387.428C387.19 369.208 387.033 368.959 387.135 368.745L389.119 364.633H406.641H406.645Z" fill="#0B2252"/>
<path d="M433.954 277.727C433.954 277.727 428.771 315.775 430.405 332.865C432.038 349.954 433.852 361.408 433.852 361.408H413.89C413.89 361.408 408.626 339.955 408.265 327.229C408.265 327.229 404.998 343.954 406.996 361.408H387.578C387.578 361.408 382.235 300.428 393.489 277.342L433.958 277.73L433.954 277.727Z" fill="url(#paint2_linear_382_21150)"/>
<path d="M408.105 218.604C408.105 218.604 426.921 221.601 433.883 237.916C440.846 254.232 437.889 259.922 435.326 262.512C432.767 265.103 427.598 267.517 427.598 267.517L408.105 218.604Z" fill="url(#paint3_linear_382_21150)"/>
<path d="M389.627 285.043C391.659 287.76 434.7 286.031 435.69 279.087C436.681 272.143 428.177 228.569 419.141 222.463C410.688 216.753 404.801 217.854 399.353 219.153C393.905 220.452 390.634 230.805 390.103 240.551C389.573 250.298 387.541 282.247 389.627 285.043Z" fill="url(#paint4_linear_382_21150)"/>
<path d="M393.788 207.191L392.842 213.988L393.859 214.084C393.859 214.084 393.975 219.821 398.055 219.426C399.229 219.313 400.805 218.526 401.2 218.771C401.669 219.064 401.693 220.632 401.751 221.093C401.972 222.852 408.145 221.87 407.397 220.002C406.685 218.229 405.6 215.792 405.967 215.198C407.25 213.129 408.213 207.716 402.962 205.21C398.78 203.216 394.128 204.869 393.788 207.194V207.191Z" fill="#FFAA9D"/>
<path d="M407.396 219.998C406.685 218.226 405.599 215.788 405.967 215.195C405.967 215.195 403.227 218.454 401.036 218.723C401.032 218.723 401.029 218.723 401.025 218.727C401.093 218.73 401.158 218.74 401.199 218.768C401.669 219.061 401.692 220.629 401.75 221.089C401.971 222.848 408.145 221.866 407.396 219.998Z" fill="#FF9F91"/>
<path d="M402.564 211.677C405.178 211.558 402.877 217.073 405.722 217.234C408.567 217.394 411.3 211.462 409.82 206.444C408.339 201.423 404.371 201.198 400.54 201.382C396.708 201.562 391.896 202.691 391.545 205.534C390.701 212.372 399.495 207.644 399.774 209.764C399.988 211.408 400.053 216.085 398.396 215.986C396.735 215.887 395.231 214.319 393.887 214.506C393.111 214.615 389.939 223.329 395.285 224.297C400.574 225.258 402.506 220.714 401.863 216.729C401.251 212.938 401.288 211.738 402.564 211.68V211.677Z" fill="#14336A"/>
<path d="M347.347 231.981C347.347 231.981 342.988 224.396 342.141 221.236C341.297 218.076 340.974 216.675 341.722 216.504C342.471 216.334 346.677 221.764 347.433 221.645C348.188 221.526 348.273 220.251 349.124 220.114C349.971 219.978 351.55 225.589 352.547 225.766C353.544 225.947 348.685 231.865 347.351 231.981H347.347Z" fill="#FFAA9D"/>
<path d="M353.014 223.585L346.225 231.453C346.225 231.453 356.638 251.624 377.502 252.159C398.366 252.694 416.283 241.588 415.844 228.487C415.496 218.134 397.576 225.978 391.097 229.158C384.617 232.339 372.213 237.391 353.014 223.585Z" fill="url(#paint5_linear_382_21150)"/>
</g>
<defs>
<linearGradient id="paint0_linear_382_21150" x1="310.498" y1="54.2888" x2="310.498" y2="212.669" gradientUnits="userSpaceOnUse">
<stop stop-color="#E9F3FC"/>
<stop offset="1" stop-color="white"/>
</linearGradient>
<radialGradient id="paint1_radial_382_21150" cx="0" cy="0" r="1" gradientUnits="userSpaceOnUse" gradientTransform="translate(347.034 368.677) scale(191.023 556.909)">
<stop stop-color="#D0DFF3"/>
<stop offset="0.99" stop-color="#D0DFF3"/>
</radialGradient>
<linearGradient id="paint2_linear_382_21150" x1="409.8" y1="362.983" x2="410.626" y2="307.266" gradientUnits="userSpaceOnUse">
<stop stop-color="#14336D"/>
<stop offset="0.97" stop-color="#0E2253"/>
</linearGradient>
<linearGradient id="paint3_linear_382_21150" x1="422.902" y1="238.509" x2="416.691" y2="261.126" gradientUnits="userSpaceOnUse">
<stop stop-color="#3162DF"/>
<stop offset="0.96" stop-color="#173DB8"/>
</linearGradient>
<linearGradient id="paint4_linear_382_21150" x1="424.198" y1="242.928" x2="381.477" y2="281.511" gradientUnits="userSpaceOnUse">
<stop stop-color="#3162DF"/>
<stop offset="0.96" stop-color="#173DB8"/>
</linearGradient>
<linearGradient id="paint5_linear_382_21150" x1="387.211" y1="225.137" x2="358.412" y2="260.966" gradientUnits="userSpaceOnUse">
<stop stop-color="#3162DF"/>
<stop offset="0.96" stop-color="#173DB8"/>
</linearGradient>
<clipPath id="clip0_382_21150">
<rect width="621" height="381" fill="white"/>
</clipPath>
</defs>
</svg>
