<svg width="12" height="12" viewBox="0 0 12 12" fill="none" xmlns="http://www.w3.org/2000/svg">
<path d="M11.1043 1.33344V4.2501C11.1043 4.36613 11.0582 4.47741 10.9761 4.55946C10.8941 4.64151 10.7828 4.6876 10.6668 4.6876C10.5507 4.6876 10.4395 4.64151 10.3574 4.55946C10.2754 4.47741 10.2293 4.36613 10.2293 4.2501V2.38985L5.72594 6.8926C5.643 6.96988 5.53331 7.01195 5.41996 7.00995C5.30662 7.00796 5.19848 6.96204 5.11832 6.88188C5.03817 6.80172 4.99225 6.69358 4.99025 6.58024C4.98825 6.4669 5.03032 6.3572 5.1076 6.27427L9.61035 1.77094H7.7501C7.63407 1.77094 7.52279 1.72484 7.44074 1.6428C7.3587 1.56075 7.3126 1.44947 7.3126 1.33344C7.3126 1.2174 7.3587 1.10612 7.44074 1.02408C7.52279 0.94203 7.63407 0.895936 7.7501 0.895936H10.6668C10.7827 0.896397 10.8937 0.942638 10.9756 1.02459C11.0576 1.10653 11.1038 1.21755 11.1043 1.33344ZM10.6668 6.14594C10.5507 6.14594 10.4395 6.19203 10.3574 6.27408C10.2754 6.35612 10.2293 6.4674 10.2293 6.58344V8.91677C10.2293 9.83669 9.83669 10.2293 8.91677 10.2293H3.08344C2.16352 10.2293 1.77094 9.83669 1.77094 8.91677V3.08344C1.77094 2.16352 2.16352 1.77094 3.08344 1.77094H5.41677C5.5328 1.77094 5.64408 1.72484 5.72613 1.6428C5.80818 1.56075 5.85427 1.44947 5.85427 1.33344C5.85427 1.2174 5.80818 1.10612 5.72613 1.02408C5.64408 0.94203 5.5328 0.895936 5.41677 0.895936H3.08344C2.78788 0.86168 2.48841 0.894697 2.20742 0.992517C1.92643 1.09034 1.6712 1.25043 1.46081 1.46081C1.25043 1.6712 1.09034 1.92643 0.992517 2.20742C0.894697 2.48841 0.86168 2.78788 0.895936 3.08344V8.91677C0.86168 9.21232 0.894697 9.51179 0.992517 9.79278C1.09034 10.0738 1.25043 10.329 1.46081 10.5394C1.6712 10.7498 1.92643 10.9099 2.20742 11.0077C2.48841 11.1055 2.78788 11.1385 3.08344 11.1043H8.91677C9.21232 11.1385 9.51179 11.1055 9.79278 11.0077C10.0738 10.9099 10.329 10.7498 10.5394 10.5394C10.7498 10.329 10.9099 10.0738 11.0077 9.79278C11.1055 9.51179 11.1385 9.21232 11.1043 8.91677V6.58344C11.1043 6.4674 11.0582 6.35612 10.9761 6.27408C10.8941 6.19203 10.7828 6.14594 10.6668 6.14594Z" fill="#4C8CFF"/>
</svg>
