<svg width="18" height="22" viewBox="0 0 18 22" fill="none" xmlns="http://www.w3.org/2000/svg">
<path d="M8.25 9.5H3.75C3.55109 9.5 3.36032 9.42098 3.21967 9.28033C3.07902 9.13968 3 8.94891 3 8.75C3 8.55109 3.07902 8.36032 3.21967 8.21967C3.36032 8.07902 3.55109 8 3.75 8H8.25C8.44891 8 8.63968 8.07902 8.78033 8.21967C8.92098 8.36032 9 8.55109 9 8.75C9 8.94891 8.92098 9.13968 8.78033 9.28033C8.63968 9.42098 8.44891 9.5 8.25 9.5ZM12.75 13.25H3.75C3.55109 13.25 3.36032 13.171 3.21967 13.0303C3.07902 12.8897 3 12.6989 3 12.5C3 12.3011 3.07902 12.1103 3.21967 11.9697C3.36032 11.829 3.55109 11.75 3.75 11.75H12.75C12.9489 11.75 13.1397 11.829 13.2803 11.9697C13.421 12.1103 13.5 12.3011 13.5 12.5C13.5 12.6989 13.421 12.8897 13.2803 13.0303C13.1397 13.171 12.9489 13.25 12.75 13.25ZM11.25 17H3.75C3.55109 17 3.36032 16.921 3.21967 16.7803C3.07902 16.6397 3 16.4489 3 16.25C3 16.0511 3.07902 15.8603 3.21967 15.7197C3.36032 15.579 3.55109 15.5 3.75 15.5H11.25C11.4489 15.5 11.6397 15.579 11.7803 15.7197C11.921 15.8603 12 16.0511 12 16.25C12 16.4489 11.921 16.6397 11.7803 16.7803C11.6397 16.921 11.4489 17 11.25 17Z" fill="#1D2B50"/>
<path d="M14.25 2H13.365C13.2103 1.56234 12.9239 1.18325 12.5453 0.914704C12.1666 0.646159 11.7142 0.501305 11.25 0.5H6.75C6.28579 0.501305 5.83335 0.646159 5.4547 0.914704C5.07605 1.18325 4.78973 1.56234 4.635 2H3.75C2.75544 2 1.80161 2.39509 1.09835 3.09835C0.395088 3.80161 0 4.75544 0 5.75V17.75C0 18.7446 0.395088 19.6984 1.09835 20.4016C1.80161 21.1049 2.75544 21.5 3.75 21.5H14.25C15.2446 21.5 16.1984 21.1049 16.9016 20.4016C17.6049 19.6984 18 18.7446 18 17.75V5.75C18 4.75544 17.6049 3.80161 16.9016 3.09835C16.1984 2.39509 15.2446 2 14.25 2ZM11.25 2C11.4489 2 11.6397 2.07902 11.7803 2.21967C11.921 2.36032 12 2.55109 12 2.75C12 2.94891 11.921 3.13968 11.7803 3.28033C11.6397 3.42098 11.4489 3.5 11.25 3.5H6.75C6.55109 3.5 6.36032 3.42098 6.21967 3.28033C6.07902 3.13968 6 2.94891 6 2.75C6 2.55109 6.07902 2.36032 6.21967 2.21967C6.36032 2.07902 6.55109 2 6.75 2H11.25ZM16.5 17.75C16.5 18.3467 16.2629 18.919 15.841 19.341C15.419 19.7629 14.8467 20 14.25 20H3.75C3.15326 20 2.58097 19.7629 2.15901 19.341C1.73705 18.919 1.5 18.3467 1.5 17.75V5.75C1.5 5.15326 1.73705 4.58097 2.15901 4.15901C2.58097 3.73705 3.15326 3.5 3.75 3.5H4.635C4.78973 3.93766 5.07605 4.31675 5.4547 4.5853C5.83335 4.85384 6.28579 4.9987 6.75 5H11.25C11.7142 4.9987 12.1666 4.85384 12.5453 4.5853C12.9239 4.31675 13.2103 3.93766 13.365 3.5H14.25C14.8467 3.5 15.419 3.73705 15.841 4.15901C16.2629 4.58097 16.5 5.15326 16.5 5.75V17.75Z" fill="#1D2B50"/>
</svg>
