<svg width="16" height="16" viewBox="0 0 16 16" fill="none" xmlns="http://www.w3.org/2000/svg">
<path d="M1.33338 2.66664V5.99997C1.33338 6.17678 1.40362 6.34635 1.52865 6.47138C1.65367 6.5964 1.82324 6.66664 2.00005 6.66664H5.33338C5.51019 6.66664 5.67976 6.5964 5.80479 6.47138C5.92981 6.34635 6.00005 6.17678 6.00005 5.99997C6.00005 5.82316 5.92981 5.65359 5.80479 5.52857C5.67976 5.40354 5.51019 5.33331 5.33338 5.33331H3.39338C3.98945 4.30805 4.91078 3.51116 6.01122 3.06904C7.11166 2.62691 8.32822 2.56487 9.46794 2.89274C10.6077 3.22061 11.6053 3.91962 12.3026 4.87892C12.9998 5.83821 13.3569 7.00285 13.317 8.18812C13.2772 9.37339 12.8427 10.5114 12.0826 11.4217C11.3224 12.332 10.2801 12.9624 9.12097 13.213C7.96181 13.4636 6.75216 13.32 5.6839 12.805C4.61563 12.2899 3.74991 11.4329 3.22405 10.37C3.18549 10.2909 3.13166 10.2203 3.06568 10.1621C2.99969 10.1039 2.92284 10.0594 2.83956 10.0311C2.75629 10.0027 2.66823 9.99118 2.58046 9.99704C2.49269 10.0029 2.40695 10.0261 2.32818 10.0652C2.24941 10.1044 2.17916 10.1587 2.12149 10.2251C2.06381 10.2915 2.01985 10.3687 1.99214 10.4522C1.96443 10.5357 1.95351 10.6238 1.96002 10.7115C1.96652 10.7993 1.99032 10.8848 2.03005 10.9633C2.67491 12.2638 3.72662 13.3183 5.02542 13.9666C6.32421 14.6149 7.79911 14.8215 9.22606 14.5552C10.653 14.2888 11.954 13.564 12.9315 12.4908C13.9089 11.4176 14.5094 10.0547 14.6417 8.60916C14.774 7.1636 14.4308 5.71437 13.6643 4.48162C12.8979 3.24886 11.75 2.29996 10.3951 1.77905C9.04017 1.25815 7.55226 1.19371 6.15738 1.59552C4.76251 1.99733 3.53689 2.84344 2.66672 4.00531V2.66664C2.66672 2.48983 2.59648 2.32026 2.47146 2.19524C2.34643 2.07021 2.17686 1.99997 2.00005 1.99997C1.82324 1.99997 1.65367 2.07021 1.52865 2.19524C1.40362 2.32026 1.33338 2.48983 1.33338 2.66664Z" fill="#A1A0A0"/>
</svg>
