<svg width="22" height="22" viewBox="0 0 22 22" fill="none" xmlns="http://www.w3.org/2000/svg">
<g clip-path="url(#clip0_632_98)">
<path d="M21.6824 19.391L19.5062 17.2793C19.3056 17.0846 19.0409 16.9806 18.7608 16.9839C18.7327 16.9843 18.7048 16.9861 18.6771 16.9887L17.9882 16.3202C18.9354 14.6957 18.8367 12.5841 17.5823 11.0407C17.3609 10.7683 17.1132 10.5249 16.8438 10.3128V0.6875C16.8438 0.307828 16.536 0 16.1563 0H0.6875C0.307828 0 0 0.307828 0 0.6875V21.3125C0 21.6922 0.307828 22 0.6875 22H16.1563C16.536 22 16.8438 21.6922 16.8438 21.3125V18.5188L16.9636 18.6351C16.9494 18.7073 16.9424 18.7814 16.9435 18.8567C16.9477 19.1368 17.0605 19.3983 17.2611 19.5928L19.4374 21.7047C19.6406 21.9018 19.9039 21.9999 20.1669 21.9999C20.4405 21.9999 20.7138 21.8937 20.9189 21.6824C20.9189 21.6824 20.9189 21.6824 20.919 21.6823L21.7047 20.8726C22.1069 20.4581 22.097 19.7935 21.6824 19.391ZM16.0393 16.5152C15.3604 17.067 14.5072 17.3213 13.6371 17.2314C12.7669 17.1415 11.9839 16.7182 11.4321 16.0392C10.8803 15.3604 10.626 14.5072 10.7158 13.6371C10.8057 12.7669 11.2292 11.9838 11.908 11.4321C12.4975 10.953 13.2182 10.6981 13.9675 10.6981C14.0812 10.6981 14.1956 10.704 14.3102 10.7158C15.1804 10.8057 15.9635 11.2291 16.5152 11.908C17.6543 13.3094 17.4408 15.3762 16.0393 16.5152ZM1.375 20.625V1.375H15.4688V9.56875C15.1428 9.4588 14.8022 9.38433 14.4515 9.34811C13.2161 9.22049 12.0048 9.5816 11.0409 10.365C10.0769 11.1484 9.47581 12.2602 9.34815 13.4958C9.22053 14.7313 9.58169 15.9425 10.3651 16.9064C11.1484 17.8704 12.2603 18.4714 13.4958 18.5991C13.6586 18.616 13.8209 18.6242 13.9824 18.6242C14.4926 18.6242 14.9933 18.5401 15.4688 18.3784V20.625H1.375ZM20.1601 20.4899L18.4535 18.8339L18.7834 18.4938L20.4901 20.1499L20.1601 20.4899ZM3.71254 8.95898C3.71254 8.57931 4.02037 8.27148 4.40004 8.27148H9.59136C9.97103 8.27148 10.2789 8.57931 10.2789 8.95898C10.2789 9.33866 9.97103 9.64648 9.59136 9.64648H4.40004C4.02033 9.64648 3.71254 9.33866 3.71254 8.95898ZM8.06708 13.041C8.06708 13.4207 7.75925 13.7285 7.37958 13.7285H4.40004C4.02037 13.7285 3.71254 13.4207 3.71254 13.041C3.71254 12.6613 4.02037 12.3535 4.40004 12.3535H7.37958C7.75925 12.3535 8.06708 12.6613 8.06708 13.041ZM8.06708 17.123C8.06708 17.5027 7.75925 17.8105 7.37958 17.8105H4.40004C4.02037 17.8105 3.71254 17.5027 3.71254 17.123C3.71254 16.7434 4.02037 16.4355 4.40004 16.4355H7.37958C7.75925 16.4355 8.06708 16.7434 8.06708 17.123ZM3.71254 4.87695C3.71254 4.49728 4.02037 4.18945 4.40004 4.18945H12.4438C12.8235 4.18945 13.1313 4.49728 13.1313 4.87695C13.1313 5.25663 12.8235 5.56445 12.4438 5.56445H4.40004C4.02033 5.56445 3.71254 5.25663 3.71254 4.87695Z" fill="#1D2B50"/>
</g>
<defs>
<clipPath id="clip0_632_98">
<rect width="22" height="22" fill="white"/>
</clipPath>
</defs>
</svg>
