<svg width="24" height="24" viewBox="0 0 24 24" fill="none" xmlns="http://www.w3.org/2000/svg">
<rect width="24" height="24" rx="6" fill="#DA6C64"/>
<g clip-path="url(#clip0_382_19595)">
<path fill-rule="evenodd" clip-rule="evenodd" d="M11.9999 6.75001C9.10043 6.75001 6.74992 9.10052 6.74992 12C6.74992 14.8995 9.10043 17.25 11.9999 17.25C14.8994 17.25 17.2499 14.8995 17.2499 12C17.2499 9.10052 14.8994 6.75001 11.9999 6.75001ZM5.58325 12C5.58325 8.45618 8.45609 5.58334 11.9999 5.58334C15.5437 5.58334 18.4166 8.45618 18.4166 12C18.4166 15.5438 15.5437 18.4167 11.9999 18.4167C8.45609 18.4167 5.58325 15.5438 5.58325 12ZM11.9999 8.50001C12.3221 8.50001 12.5833 8.76118 12.5833 9.08334V12.5833C12.5833 12.9055 12.3221 13.1667 11.9999 13.1667C11.6777 13.1667 11.4166 12.9055 11.4166 12.5833V9.08334C11.4166 8.76118 11.6777 8.50001 11.9999 8.50001ZM11.9999 15.5C12.3221 15.5 12.5833 15.2389 12.5833 14.9167C12.5833 14.5945 12.3221 14.3333 11.9999 14.3333C11.6777 14.3333 11.4166 14.5945 11.4166 14.9167C11.4166 15.2389 11.6777 15.5 11.9999 15.5Z" fill="white"/>
</g>
<defs>
<clipPath id="clip0_382_19595">
<rect width="14" height="14" fill="white" transform="translate(5 5)"/>
</clipPath>
</defs>
</svg>
