<svg width="137" height="40" viewBox="0 0 137 40" fill="none" xmlns="http://www.w3.org/2000/svg">
<path d="M121.311 18.1026C121.242 18.1026 121.224 18.1367 121.207 18.2393C121.172 18.4444 120.948 21.1111 120.913 21.2991C120.878 21.5043 120.982 21.5556 121.121 21.5556C121.259 21.5556 121.328 21.5214 121.432 21.3504C121.536 21.1795 121.605 21.0598 121.691 21.0598C121.778 21.0598 121.899 21.1282 122.089 21.265C122.747 21.7607 123.56 22.0513 124.926 22.0513C127.123 22.0513 128.455 20.4103 128.455 18.3932C128.455 17.282 128.144 16.5983 127.625 16.0342C126.985 15.3846 126.189 15.0427 125.22 14.7521C124.563 14.547 123.611 14.1538 123.179 13.7265C122.833 13.3162 122.66 12.7692 122.712 12.2393C122.764 11.265 123.594 10.5299 124.58 10.5812C125.238 10.547 125.878 10.8034 126.31 11.282C126.777 11.7778 127.123 12.3761 127.348 13.0256C127.365 13.094 127.434 13.1453 127.504 13.1282H127.521L127.78 13.0427C127.832 13.0427 127.884 12.9914 127.884 12.9231C127.884 12.7521 127.625 10.4444 127.625 10.188C127.625 10.0171 127.59 9.93162 127.486 9.93162C127.4 9.93162 127.313 9.96581 127.261 10.0342L127.054 10.2393C126.967 10.3248 126.812 10.359 126.708 10.2906C126.033 10.0171 125.324 9.89743 124.597 9.91453C123.733 9.86324 122.885 10.1538 122.228 10.7009C121.484 11.2308 121.051 12.0855 121.051 12.9914C121.051 14 121.311 14.8205 121.882 15.3504C122.608 15.9487 123.421 16.4273 124.321 16.735C126.085 17.3846 126.794 17.8974 126.794 19.4017C126.794 20.7692 125.532 21.3333 124.632 21.3333C123.733 21.3333 122.902 20.8889 122.435 20.1538C122.055 19.5897 121.847 18.9402 121.795 18.2735C121.795 18.1709 121.761 18.1367 121.691 18.1367L121.311 18.1026ZM115.879 16.7692C115.879 18.0855 115.845 20.4615 115.827 20.6325C115.776 21.1111 115.637 21.2137 115.343 21.2137H114.305C114.201 21.2137 114.167 21.2479 114.167 21.3504V21.7265C114.167 21.812 114.201 21.8803 114.305 21.8803C114.547 21.8803 115.17 21.8291 116.813 21.8291C118.284 21.8291 119.079 21.8803 119.287 21.8803C119.425 21.8803 119.425 21.812 119.425 21.7094V21.3333C119.425 21.282 119.425 21.2137 119.322 21.2137H118.422C118.111 21.2137 117.972 20.9402 117.955 20.3248C117.955 20.0513 117.92 17.641 117.92 16.6496V15.4872V11.4017C117.92 11.0427 117.972 10.7521 118.405 10.7521H119.131C119.235 10.7521 119.27 10.6838 119.27 10.5812V10.2393C119.27 10.1538 119.235 10.0855 119.166 10.0855C118.958 10.0855 118.405 10.1538 115.966 10.1367C115.568 10.1367 115.36 10.1709 115.308 10.3419C115.222 10.6667 113.717 14.0684 113.423 14.7521C112.991 15.7436 111.814 18.4444 111.659 18.735C111.157 17.3846 108.822 11.9145 108.216 10.359C108.164 10.188 108.009 10.0684 107.818 10.0855C107.611 10.0855 107.161 10.1367 106.348 10.1367C104.584 10.1367 104.151 10.0855 103.978 10.0855C103.875 10.0855 103.84 10.1538 103.84 10.188V10.6325C103.84 10.7009 103.892 10.7521 103.961 10.7521H103.978H104.705C105.431 10.7521 105.518 11.1111 105.518 11.7094V14.5299C105.518 14.8205 105.414 18.8718 105.276 20.0342C105.189 20.6154 105.016 21.1966 104.445 21.1966H103.684C103.58 21.1966 103.58 21.265 103.58 21.2991V21.7094C103.58 21.8291 103.58 21.8632 103.719 21.8632C103.857 21.8632 104.445 21.812 105.881 21.812C107.144 21.812 107.611 21.8632 107.784 21.8632C107.957 21.8632 107.957 21.7949 107.957 21.7265V21.3162C107.957 21.2479 107.905 21.1966 107.836 21.1966C107.836 21.1966 107.836 21.1966 107.818 21.1966H107.092C106.556 21.1966 106.365 20.5641 106.296 19.812C106.192 18.735 106.21 15.9487 106.21 15.7436C106.21 15.5385 106.227 11.4017 106.296 11.1624C106.504 11.3675 108.026 15.0598 108.337 15.812C108.441 16.0684 110.603 21.2137 110.655 21.3162C110.725 21.5214 110.828 21.6068 110.915 21.6068C111.088 21.6068 111.209 21.3846 111.278 21.2479C111.347 21.1111 113.06 17.1966 113.319 16.6667C113.527 16.2393 115.62 11.4188 115.758 11.1966H115.827C115.862 11.265 115.862 15.3504 115.862 15.8461L115.879 16.7692ZM101.245 15.1966C101.245 14.9914 101.28 11.3846 101.28 11.2137C101.28 10.8889 101.539 10.7692 101.92 10.7692H102.56C102.629 10.7692 102.698 10.7179 102.698 10.6496V10.6325V10.2564C102.698 10.1709 102.664 10.1026 102.56 10.1026C102.335 10.1026 101.799 10.1538 100.19 10.1538C98.5813 10.1538 97.6645 10.0855 97.4743 10.0855C97.4051 10.0855 97.3705 10.1197 97.3705 10.2051V10.6325C97.3705 10.7179 97.4051 10.7521 97.5089 10.7521H98.3738C98.8408 10.7521 99.0138 10.9231 99.0657 11.3162C99.083 11.5385 99.1176 14.4957 99.1176 14.8889V16.0513C99.1176 16.9402 99.083 20.4957 99.0484 20.735C98.9792 21.1795 98.6159 21.2137 98.27 21.2137H97.6126C97.5089 21.2137 97.4743 21.2479 97.4743 21.3162V21.7607C97.4743 21.8462 97.5089 21.8803 97.6126 21.8803C97.7856 21.8803 98.5121 21.8291 100.19 21.8291C101.747 21.8291 102.421 21.8803 102.612 21.8803C102.716 21.8803 102.785 21.8461 102.785 21.7436V21.3333C102.785 21.265 102.733 21.2137 102.664 21.2137H102.646H101.937C101.539 21.2137 101.28 21.1453 101.28 20.6154C101.28 20.4273 101.245 16.6496 101.245 16.4786V15.1966ZM88.2717 16.6325C88.3928 16.2564 89.8977 12.2051 89.9496 11.9829C90.0015 11.8291 90.0707 11.7607 90.1745 11.7607C90.2783 11.7607 90.2783 11.8632 90.3475 12.0684C90.4513 12.3932 91.5756 16.1538 91.7486 16.6325C91.7313 16.6325 88.2717 16.6325 88.2717 16.6325ZM91.9216 17.282C92.1292 17.8974 92.7865 20 92.9249 20.5983C93.0287 21.0427 92.8903 21.2137 92.4232 21.2137H91.9908C91.887 21.2137 91.8524 21.2479 91.8524 21.3504V21.6752C91.8524 21.7778 91.887 21.8803 92.0254 21.8803C92.3886 21.8803 92.9595 21.8291 94.3433 21.8291C96.1769 21.8291 96.5056 21.8803 96.8169 21.8803C96.9553 21.8803 96.9899 21.7778 96.9899 21.6752V21.3504C96.9899 21.265 96.9553 21.2308 96.8515 21.2308H96.3153C95.8482 21.1966 95.4331 20.906 95.2428 20.4786C95.0006 20.0342 93.9455 16.9744 93.5476 15.6923C93.2362 14.6325 91.9389 10.9402 91.6448 9.93162C91.6102 9.82906 91.541 9.64102 91.4373 9.64102C91.3335 9.64102 91.2816 9.7094 91.1951 9.81196C90.6934 10.1709 90.1399 10.4615 89.5345 10.6325C89.3961 10.6667 89.3615 10.735 89.3615 10.8034C89.3788 10.8718 89.4134 10.9402 89.4653 11.0085C89.5691 11.1111 89.4653 11.4017 89.4307 11.5726C89.2577 12 87.9085 15.5556 87.8047 15.8974C87.303 17.282 86.1095 20.2393 85.9365 20.547C85.6424 21.0598 85.3311 21.282 84.864 21.282H84.3624C84.2932 21.282 84.2586 21.3162 84.2586 21.4188V21.7436C84.2586 21.8632 84.2586 21.9658 84.3624 21.9658C84.6046 21.9658 84.9678 21.9145 86.196 21.9145C87.3722 21.9145 88.0642 21.9658 88.289 21.9658C88.3928 21.9658 88.4274 21.8974 88.4274 21.7949V21.3504C88.4274 21.2991 88.3928 21.265 88.2544 21.265H87.5625C87.2339 21.265 86.9571 21.0769 86.9571 20.8718C86.9571 20.7692 86.9571 20.6496 86.9917 20.547C87.0782 20.1026 87.8912 17.7436 88.0296 17.3675L91.9216 17.282ZM84.051 18.3248C83.9472 18.2906 83.9126 18.3248 83.8435 18.3932C83.6186 19.0256 82.5461 20.9914 81.612 21.1282C80.9547 21.1966 79.7438 21.1966 78.8097 21.1966H77.8756C77.8065 20.4957 77.8065 16.9402 77.8065 16.6325V15.2137C77.8065 14.0513 77.8756 11.5897 77.8756 11.3675C77.8756 10.9231 77.9448 10.7521 78.4465 10.7521H79.346C79.4844 10.7521 79.519 10.6838 79.519 10.6154V10.2222C79.519 10.1367 79.4844 10.0684 79.346 10.0684C79.2076 10.0684 78.5157 10.1197 76.7167 10.1197C75.1772 10.1197 74.5717 10.0684 74.4161 10.0684C74.3123 10.0684 74.2777 10.1026 74.2777 10.2051V10.5983C74.2777 10.6838 74.3296 10.735 74.4161 10.7521H75.108C75.5404 10.7521 75.6096 10.9231 75.6442 11.3504C75.6788 11.6239 75.7134 13.3675 75.7134 14.4273V15.3504C75.7134 16.3419 75.6442 20.4615 75.6442 20.7521C75.6442 20.9744 75.5404 21.1966 74.9523 21.1966H74.295C74.1912 21.1966 74.1912 21.2308 74.1912 21.3333V21.7094C74.1912 21.8291 74.1912 21.8632 74.3296 21.8632C74.5198 21.8632 75.1253 21.812 76.6302 21.812C78.3254 21.812 83.1342 21.8462 83.5667 21.8632C83.6705 21.4188 84.3278 18.6838 84.397 18.5812C84.397 18.4786 84.397 18.4444 84.3624 18.4103L84.051 18.3248ZM72.7208 18.8889C72.669 18.8376 72.5998 18.8889 72.5306 19.0085C71.5965 20.2393 70.1088 20.9573 68.552 20.9231C67.7563 20.9231 66.7876 20.7863 65.6806 19.641C64.4524 18.3248 64.141 16.359 64.141 15.3504C64.141 12.9744 65.2481 10.5983 67.912 10.5983C69.0018 10.5983 70.057 11.0427 70.8181 11.812C71.4062 12.4273 71.8386 13.1624 72.1154 13.9487C72.1673 14.0855 72.2192 14.1538 72.3057 14.1197L72.6171 14.0171C72.6862 14 72.7036 13.9487 72.6863 13.8461C72.6171 13.3675 72.2884 10.735 72.2884 10.4103C72.2884 10.1709 72.2538 10.1367 72.0462 10.1367C71.8386 10.1367 71.8214 10.1367 71.7868 10.2393L71.6484 10.6838C71.6138 10.8205 71.5446 10.8205 71.3197 10.6838C70.2818 10.1538 69.1229 9.88034 67.9466 9.89743C66.3206 9.84615 64.7465 10.4786 63.6048 11.641C62.4804 12.8376 61.875 14.4273 61.9096 16.0513C61.9096 17.5043 62.4804 19.4188 63.7086 20.4957C64.7465 21.4188 65.94 22.0342 68.085 22.0342C70.4548 22.0342 72.0635 20.6838 73.0668 19.265C73.1014 19.2137 73.0841 19.1453 73.0322 19.094L72.7208 18.8889Z" fill="#6084AF"/>
<path d="M53.1047 18.1026C53.0355 18.1026 53.0182 18.1368 53.0009 18.2393C52.9663 18.4445 52.7415 21.1111 52.6896 21.2992C52.655 21.5043 52.7588 21.5556 52.8972 21.5556C53.0355 21.5556 53.0874 21.5214 53.1912 21.3504C53.295 21.1795 53.3642 21.0598 53.4507 21.0598C53.5545 21.0598 53.6583 21.1282 53.8485 21.265C54.5059 21.7607 55.3189 22.0513 56.6854 22.0513C58.8823 22.0513 60.2142 20.4103 60.2142 18.3932C60.2142 17.2821 59.9201 16.5983 59.3839 16.0342C58.7439 15.3846 57.9482 15.0427 56.9795 14.7521C56.2357 14.547 55.5437 14.2051 54.9383 13.7265C54.5924 13.3162 54.4194 12.7863 54.4713 12.2393C54.5232 11.265 55.3708 10.5299 56.3395 10.5812C56.9968 10.547 57.6368 10.8034 58.0693 11.2821C58.5363 11.7778 58.8823 12.3761 59.1071 13.0256C59.1244 13.094 59.1936 13.1453 59.2628 13.1282H59.2801L59.5396 13.0427C59.6088 13.0256 59.6434 12.9915 59.6434 12.9231C59.6434 12.7521 59.3839 10.4445 59.3839 10.188C59.3839 10.0171 59.3493 9.93163 59.2455 9.93163C59.159 9.93163 59.0725 9.96582 59.0033 10.0342L58.7785 10.2564C58.692 10.3419 58.5363 10.3761 58.4325 10.3077C57.7579 10.0342 57.0487 9.91454 56.3395 9.91454C55.4746 9.88035 54.627 10.1539 53.9696 10.7009C53.2258 11.2308 52.7934 12.0855 52.7934 12.9915C52.7934 14 53.0528 14.8205 53.6237 15.3504C54.3502 15.9487 55.1632 16.4274 56.0627 16.7351C57.8271 17.3846 58.5363 17.8974 58.5363 19.4017C58.5363 20.7692 57.2735 21.3333 56.374 21.3333C55.4918 21.3333 54.6443 20.8889 54.1772 20.1539C53.7967 19.5898 53.5891 18.9402 53.5372 18.2735C53.5372 18.1709 53.5026 18.1368 53.4334 18.1368L53.1047 18.1026ZM41.048 15.4872C41.048 17.641 41.1172 18.7351 41.3594 19.453C41.6362 20.4445 42.3627 21.265 43.3314 21.6581C44.0925 21.9316 44.9228 22.0684 45.7358 22.0513C46.8429 22.1026 47.9153 21.7436 48.7629 21.0427C49.6624 20.2564 50.0603 19.2308 50.1641 17.8803C50.2333 17.2308 50.2679 14.359 50.2679 14.1197C50.2679 13.8803 50.2679 11.6068 50.3025 11.4017C50.3025 11.0427 50.5965 10.7521 50.9598 10.7521C50.9771 10.7521 50.9771 10.7521 50.9944 10.7521H51.5998C51.6863 10.7521 51.7036 10.7009 51.7036 10.5983V10.2222C51.7036 10.1368 51.6863 10.0855 51.5306 10.0855C51.3749 10.0855 50.8733 10.1368 49.8354 10.1368C48.7283 10.1368 47.9672 10.0855 47.7942 10.0855C47.6905 10.0855 47.6559 10.1197 47.6559 10.2222V10.6325C47.6559 10.7009 47.6905 10.7521 47.7942 10.7521H48.3997C48.7802 10.7692 49.0916 11.094 49.0916 11.4701C49.2127 12.5128 49.2646 13.5727 49.2819 14.6154V17.6068C49.2819 18.8034 48.9532 19.7607 48.3132 20.3932C47.6905 20.906 46.8948 21.1795 46.0817 21.1795C45.2168 21.2137 44.3692 20.8205 43.833 20.1539C43.4352 19.6239 43.2968 18.8718 43.2449 18.1197C43.2103 17.5898 43.193 16.4274 43.193 15.6068V13.5556C43.193 12.5983 43.2276 11.6068 43.2449 11.4188C43.2795 11.0256 43.6254 10.735 44.0406 10.7692C44.0579 10.7692 44.0579 10.7692 44.0752 10.7692H44.7671C44.8709 10.7692 44.9055 10.7351 44.9055 10.6325V10.2393C44.9055 10.1539 44.8709 10.1197 44.7671 10.1197C44.5768 10.1197 43.7638 10.1709 42.3627 10.1709C40.754 10.1709 39.9583 10.1197 39.7853 10.1197C39.6123 10.1197 39.6123 10.1539 39.6123 10.2564V10.6325C39.6123 10.7521 39.6469 10.7863 39.7507 10.7863H40.5118C40.9442 10.7863 41.0826 11.0427 41.0826 11.6068L41.048 15.4872Z" fill="#1D2B50"/>
<path d="M8.85635 16.0171C4.86052 21.8462 6.41734 29.7778 12.3332 33.7265C16.1561 36.2735 21.086 36.6154 25.2375 34.6154L25.151 34.2564C18.1108 35.3504 11.5029 30.6154 10.3786 23.6581C9.61746 18.8889 11.6413 14.1026 15.6026 11.2992L15.7237 10.9744C12.9214 11.8291 10.4997 13.6068 8.85635 16.0171Z" fill="#C2C3C5"/>
<path d="M11.6244 24.2051C15.1013 29.9487 22.6259 31.8291 28.4554 28.4103C32.4858 26.0342 34.7864 21.6069 34.4059 16.9915L34.7345 16.9402C37.1389 23.1966 33.9734 30.2051 27.6424 32.5812C21.3113 34.9573 14.2191 31.8291 11.8147 25.5727C11.6244 25.0769 11.4687 24.5641 11.3477 24.0513L11.6244 24.2051Z" fill="#1D2B50"/>
<path d="M28.4208 17.9316C26.5353 13.7778 21.5881 11.9145 17.3847 13.7778C14.4959 15.0598 12.5932 17.8291 12.4548 20.9573H12.2126C11.0364 16.547 13.7002 12.0342 18.1631 10.8889C22.626 9.74359 27.1927 12.359 28.3516 16.7692C28.4554 17.1795 28.5419 17.6068 28.5938 18.0513L28.4208 17.9316Z" fill="#DEE0E2"/>
<path d="M27.625 5.52137L27.4866 5.453H27.4693L27.3309 5.38462L27.1926 5.31624L27.0542 5.24787C26.0855 4.76924 25.0476 4.42736 23.9751 4.22223L23.6811 4.17095L23.5427 4.15385L23.387 4.13676L23.2486 4.11966H23.2313H23.0929H22.9546H22.92H22.7816H22.7643H22.6605H22.6259H22.5048H22.4702H22.3664H22.3318H22.2107H20.8615H20.7577H20.7231H20.5847H20.4463H20.4118H20.308L20.2388 4.10257H20.135H20.1177H19.9793H19.9447H19.8409H19.789L19.6852 4.11966H19.6333H19.5469H19.4777H19.3912H19.3393L19.2355 4.25642L19.149 4.27351H19.0798H18.9933H18.9414H18.8549H18.8203L18.7165 4.2906H18.682L18.5609 4.32479H18.5436L18.4225 4.35898H18.3879L18.2668 4.46154L18.1284 4.49573L18.1457 4.83761H18.2668C19.3739 4.85471 20.4636 5.02565 21.5188 5.33334L21.6572 5.36753L21.7956 5.41881C28.3688 7.48719 32.0014 14.4445 29.891 20.9402C29.8564 21.0427 29.8219 21.1453 29.7873 21.2479C29.7527 21.3504 29.7181 21.4359 29.6835 21.5385C28.5418 24.4786 26.3277 26.8718 23.4908 28.2564L23.3178 28.5299C27.3309 28 30.8251 25.5727 32.7106 22.0342L32.849 21.7607C32.9009 21.6752 32.9355 21.5727 32.9874 21.4872C33.0393 21.4017 33.0739 21.2992 33.1085 21.2137C33.195 21.0256 33.2641 20.8376 33.3333 20.6667C33.3679 20.5812 33.4025 20.4957 33.4371 20.3932V20.3761C33.4717 20.2906 33.489 20.2051 33.5236 20.1197V20.0855L33.6101 19.8291C33.6274 19.7436 33.662 19.6581 33.6793 19.5727V19.5385C33.6966 19.453 33.7312 19.3675 33.7485 19.2821V19.2479L33.8004 18.9915V18.9744C33.8177 18.8889 33.835 18.8034 33.8523 18.718V18.6838L33.9042 18.4103C33.9042 18.3077 33.9388 18.2222 33.9561 18.1197C34.0426 17.5385 34.0945 16.9573 34.0945 16.359C34.129 14.4615 33.7139 12.5812 32.8836 10.8547C32.8317 10.7692 32.7971 10.6838 32.7452 10.5983L32.6068 10.3419C32.5549 10.2564 32.5203 10.1709 32.4684 10.1026V10.0855L32.3301 9.84616V9.81197L32.1744 9.58975L32.1571 9.55556L32.0014 9.33334L31.9841 9.29915L31.8284 9.07693L31.8111 9.04274L31.6381 8.82052L31.5689 8.76924L31.396 8.54701L31.3787 8.51283C31.3268 8.44445 31.2576 8.37607 31.1884 8.2906L31.1711 8.25642L30.9808 8.03419L30.9635 8.0171L30.7732 7.79488V7.77778L30.5657 7.55556C30.4965 7.48719 30.4273 7.41881 30.3408 7.33334L30.2543 7.28206L30.2197 7.24787L30.1851 7.21368L30.1678 7.19659L30.1332 7.1624L30.0986 7.12821L30.064 7.09402C29.3548 6.46154 28.5937 5.93163 27.7634 5.47009L27.625 5.52137Z" fill="#C2C3C5"/>
<path d="M24.2346 7.77778C23.9406 7.58975 23.6465 7.40171 23.3351 7.24787C17.2289 3.93163 9.56594 6.11966 6.21013 12.1538C4.22087 15.7436 4.13438 20.0684 5.98526 23.7265L6.31392 23.641C5.15496 16.8547 9.79082 10.4274 16.6581 9.29915C21.3632 8.51282 26.1201 10.4444 28.9397 14.2564L29.2683 14.3761C28.4034 11.6752 26.6218 9.35043 24.2346 7.77778Z" fill="#1D2B50"/>
<path d="M130.686 11.1453C130.911 11.1453 131.292 11.1966 131.292 10.906C131.292 10.735 131.049 10.6838 130.859 10.6838H130.392V11.1282H130.686V11.1453ZM131.499 12.2051H131.205L130.686 11.4017H130.392V12.2051H130.15V10.4615H130.911C131.24 10.4615 131.534 10.547 131.534 10.9231C131.534 11.2991 131.292 11.3846 130.98 11.4017L131.499 12.2051ZM132.087 11.3504C132.087 10.6154 131.482 10 130.738 10C129.994 10 129.372 10.5983 129.372 11.3333C129.372 12.0684 129.977 12.6838 130.721 12.6838H130.738C131.482 12.6838 132.105 12.0855 132.087 11.3504ZM129.129 11.3504C129.129 10.4786 129.839 9.76068 130.738 9.76068C131.638 9.76068 132.347 10.4615 132.347 11.3504C132.347 12.2222 131.638 12.9402 130.738 12.9402C129.856 12.9573 129.129 12.2564 129.129 11.3846C129.129 11.3675 129.129 11.3504 129.129 11.3504Z" fill="#6084AF"/>
<path d="M126.379 28.1026C126.552 28.1026 126.863 28.1368 126.863 27.9145C126.863 27.7778 126.673 27.7436 126.517 27.7436H126.137V28.1026H126.379ZM127.036 28.9402H126.794L126.379 28.2906H126.137V28.9402H125.947V27.5556H126.552C126.811 27.5556 127.054 27.6239 127.054 27.9145C127.054 28.2051 126.863 28.2906 126.621 28.2906L127.036 28.9402ZM127.503 28.2564C127.503 27.6581 127.019 27.1795 126.414 27.1795C125.808 27.1795 125.324 27.6581 125.324 28.2564C125.324 28.8547 125.808 29.3333 126.414 29.3333C127.019 29.3162 127.503 28.8376 127.503 28.2564ZM125.151 28.2564C125.151 27.5556 125.722 26.9915 126.431 26.9915C127.14 26.9915 127.711 27.5556 127.711 28.2564C127.711 28.9573 127.14 29.5214 126.431 29.5214C125.722 29.5214 125.151 28.9744 125.151 28.2735V28.2564Z" fill="#999B9C"/>
<path d="M42.4495 26.9402H41.8613V30.6496H43.5738V30.1026H42.4495V26.9402Z" fill="#999B9C"/>
<path d="M44.7327 26.9402H44.1445V30.6496H44.7327V26.9402Z" fill="#999B9C"/>
<path d="M45.3726 27.4701H46.2375V30.6496H46.8429V27.4701H47.7078V26.9402H45.3726V27.4701Z" fill="#999B9C"/>
<path d="M48.9358 26.9402H48.3477V30.6496H48.9358V26.9402Z" fill="#999B9C"/>
<path d="M51.8075 29.2479H52.7589C52.6897 29.7778 52.1189 30.188 51.6173 30.188C50.8908 30.188 50.2507 29.5385 50.2507 28.7863C50.2507 28 50.8735 27.4017 51.6519 27.4017C52.067 27.4017 52.4995 27.6239 52.7589 27.9658L52.8108 28.0171L53.226 27.6239L53.1914 27.5727C52.8281 27.1282 52.24 26.8547 51.6346 26.8547C50.5448 26.8547 49.6626 27.7265 49.6626 28.8034C49.6626 29.8462 50.5448 30.735 51.5827 30.735C52.6206 30.735 53.399 29.9829 53.399 28.9231V28.718H51.8075V29.2479Z" fill="#999B9C"/>
<path d="M53.7104 30.6496H54.3505L54.7656 29.7436H56.3743L56.7895 30.6496H57.4295L55.5786 26.7009L53.7104 30.6496ZM55.5613 27.9829L56.1149 29.2137H55.0078L55.5613 27.9829Z" fill="#999B9C"/>
<path d="M57.2563 27.4701H58.1212V30.6496H58.7094V27.4701H59.5916V26.9402H57.2563V27.4701Z" fill="#999B9C"/>
<path d="M60.8025 26.9402H60.2144V30.6496H60.8025V26.9402Z" fill="#999B9C"/>
<path d="M63.5181 26.8547C62.411 26.8547 61.5288 27.7265 61.5288 28.7863C61.5288 29.8633 62.411 30.718 63.5181 30.718C64.6251 30.718 65.5073 29.8633 65.5073 28.7863C65.5073 27.7265 64.6251 26.8547 63.5181 26.8547ZM63.5181 30.1709C62.7397 30.1709 62.1169 29.5556 62.1169 28.7863C62.1169 28 62.7224 27.4017 63.5181 27.4017C64.3138 27.4017 64.9192 28 64.9192 28.7863C64.9192 29.5556 64.2965 30.1709 63.5181 30.1709Z" fill="#999B9C"/>
<path d="M68.9669 29.4872L66.1992 26.6667V30.6496H66.7873V28.0684L69.555 30.8889V26.9402H68.9669V29.4872Z" fill="#999B9C"/>
<path d="M72.3228 30.6496H72.9109V28.8889H74.1909V28.3419H72.9109V27.4701H74.2255V26.9402H72.3228V30.6496Z" fill="#999B9C"/>
<path d="M77.2356 29.1111C77.2356 29.829 76.9588 30.1709 76.4053 30.1709C75.8517 30.1709 75.5749 29.829 75.5749 29.1111V26.9231H74.9868V29.2479C74.9868 30.1196 75.5577 30.7008 76.4053 30.7008C77.2529 30.7008 77.8237 30.1196 77.8237 29.2479V26.9231H77.2356V29.1111Z" fill="#999B9C"/>
<path d="M81.4559 29.4872L78.7056 26.6667V30.6496H79.2937V28.0684L82.0441 30.8889V26.9402H81.4559V29.4872Z" fill="#999B9C"/>
<path d="M83.7741 26.9402H82.9438V30.6496H83.7569C85.0715 30.6496 85.9018 29.9316 85.9018 28.7692C85.9018 27.6581 85.0715 26.9402 83.7741 26.9402ZM83.532 27.4701H83.6185C84.3796 27.4701 85.2964 27.6923 85.2964 28.7863C85.2964 29.8804 84.3796 30.1026 83.6185 30.1026H83.532V27.4701Z" fill="#999B9C"/>
<path d="M87.2336 26.9402H86.6455V30.6496H87.2336V26.9402Z" fill="#999B9C"/>
<path d="M90.9183 29.4872L88.168 26.6667V30.6496H88.7561V28.0684L91.5065 30.8889V26.9402H90.9183V29.4872Z" fill="#999B9C"/>
<path d="M94.3432 29.2479H95.2946C95.2254 29.7778 94.6546 30.188 94.1529 30.188C93.4264 30.188 92.7864 29.5385 92.7864 28.7863C92.7864 28 93.4091 27.4017 94.1875 27.4017C94.6027 27.4017 95.0351 27.6239 95.2946 27.9658L95.3465 28.0171L95.7616 27.6239L95.727 27.5727C95.3638 27.1282 94.7756 26.8547 94.1702 26.8547C93.0804 26.8547 92.1982 27.7265 92.1982 28.8034C92.1982 29.8462 93.0804 30.735 94.1183 30.735C95.1562 30.735 95.9173 29.9829 95.9173 28.9231V28.718H94.3259L94.3432 29.2479Z" fill="#999B9C"/>
<path d="M99.8092 28.3932L99.5497 28.2906C99.2384 28.1709 99.0827 28.0171 99.0827 27.8462C99.0827 27.5727 99.3767 27.4017 99.6362 27.4017C99.8784 27.4017 100.034 27.4872 100.172 27.7094L100.207 27.7607L100.691 27.4872L100.657 27.4359C100.449 27.0598 100.086 26.8547 99.6535 26.8547C99.1 26.8547 98.5118 27.1966 98.5118 27.8462C98.5118 28.3932 98.9443 28.6325 99.3595 28.8205L99.6189 28.9231C99.9822 29.0769 100.207 29.2308 100.207 29.5385C100.207 29.8974 99.9303 30.1709 99.6016 30.1709C99.4113 30.1709 99.2557 30.1026 99.1173 29.9829C98.9962 29.8633 98.9443 29.7265 98.9443 29.5556V29.4701L98.3389 29.5897V29.6581C98.4254 30.2735 98.927 30.718 99.5324 30.718C100.242 30.718 100.778 30.2051 100.778 29.5385C100.761 28.8547 100.276 28.5812 99.8092 28.3932Z" fill="#999B9C"/>
<path d="M102.127 26.9402H101.539V30.6496H102.127V26.9402Z" fill="#999B9C"/>
<path d="M104.895 29.5043L103.597 26.6325L102.802 30.6496H103.407L103.805 28.4103L104.895 30.8205L105.967 28.4103L106.382 30.6496H106.988L106.175 26.6325L104.895 29.5043Z" fill="#999B9C"/>
<path d="M108.268 26.9231H107.68V30.6325H108.268V29.1282H108.475C109.34 29.1282 109.825 28.7179 109.825 28.0171C109.807 27.2649 109.323 26.9231 108.268 26.9231ZM109.254 28.0171C109.254 28.4273 108.977 28.6154 108.337 28.6154H108.251V27.453H108.302C108.977 27.453 109.254 27.6239 109.254 28.0171Z" fill="#999B9C"/>
<path d="M111.088 26.9402H110.5V30.6496H112.212V30.1026H111.088V26.9402Z" fill="#999B9C"/>
<path d="M113.371 26.9402H112.783V30.6496H113.371V26.9402Z" fill="#999B9C"/>
<path d="M114.34 30.6496H114.945V28.8889H116.208V28.3419H114.945V27.4701H116.26V26.9402H114.34V30.6496Z" fill="#999B9C"/>
<path d="M117.661 26.9402H117.073V30.6496H117.661V26.9402Z" fill="#999B9C"/>
<path d="M118.629 30.6496H120.74V30.1026H119.235V28.8718H120.705V28.3419H119.235V27.4701H120.74V26.9402H118.629V30.6496Z" fill="#999B9C"/>
<path d="M122.383 26.9402H121.553V30.6496H122.366C123.68 30.6496 124.511 29.9316 124.511 28.7692C124.511 27.6581 123.68 26.9402 122.383 26.9402ZM122.141 27.4701H122.227C122.988 27.4701 123.905 27.6923 123.905 28.7863C123.905 29.8804 122.988 30.1026 122.227 30.1026H122.141V27.4701Z" fill="#999B9C"/>
</svg>
