<svg width="20" height="20" viewBox="0 0 20 20" fill="none" xmlns="http://www.w3.org/2000/svg">
<path d="M9.25 18.25C11.4625 18.25 13.4875 17.4475 15.055 16.1125L18.4675 19.525C18.6175 19.675 18.805 19.75 19 19.75C19.195 19.75 19.3825 19.675 19.5325 19.5325C19.825 19.24 19.825 18.7675 19.5325 18.475L16.12 15.0625C17.4475 13.4875 18.25 11.4625 18.25 9.25C18.25 4.285 14.215 0.25 9.25 0.25C4.285 0.25 0.25 4.285 0.25 9.25C0.25 14.215 4.285 18.25 9.25 18.25ZM9.25 1.75C13.3825 1.75 16.75 5.1175 16.75 9.25C16.75 13.3825 13.3825 16.75 9.25 16.75C5.1175 16.75 1.75 13.3825 1.75 9.25C1.75 5.1175 5.1175 1.75 9.25 1.75Z" fill="#1D2B50"/>
<path d="M3.51773 11.471C3.62484 11.5093 3.74535 11.5096 3.85269 11.4717C3.96002 11.4339 4.04545 11.361 4.09013 11.2692L4.70716 9.99982H7.0413L7.65833 11.2692C7.7514 11.4604 8.00765 11.5507 8.23073 11.471C8.45382 11.3913 8.55919 11.1717 8.46617 10.9805L7.73626 9.48043V9.47818L6.27906 6.4807C6.21109 6.34101 6.05179 6.25 5.87517 6.25C5.69855 6.25 5.53925 6.34101 5.47127 6.4807L4.01408 9.47818V9.48043L3.28417 10.9805C3.1908 11.1712 3.29534 11.3907 3.51773 11.471ZM5.87421 7.59977L6.67633 9.24984H5.07209L5.87421 7.59977Z" fill="#1D2B50"/>
<path d="M10 11.5H14.5C14.9125 11.5 15.25 11.1625 15.25 10.75C15.25 10.3375 14.9125 10 14.5 10H10C9.5875 10 9.25 10.3375 9.25 10.75C9.25 11.1625 9.5875 11.5 10 11.5Z" fill="#1D2B50"/>
<path d="M10 8.5H13C13.4125 8.5 13.75 8.1625 13.75 7.75C13.75 7.3375 13.4125 7 13 7H10C9.5875 7 9.25 7.3375 9.25 7.75C9.25 8.1625 9.5875 8.5 10 8.5Z" fill="#1D2B50"/>
</svg>
