<svg width="16" height="15" viewBox="0 0 16 15" fill="none" xmlns="http://www.w3.org/2000/svg">
<path d="M2.8776 15.0002H13.3444C14.4417 15.0002 15.3333 14.1085 15.3333 13.0113V3.10003C15.3333 2.0028 14.4417 1.11111 13.3444 1.11111H12.5555V0.555554C12.5555 0.24999 12.3055 0 11.9999 0C11.6944 0 11.4444 0.24999 11.4444 0.555554V1.11111H4.77764V0.555554C4.77764 0.24999 4.5276 0 4.22204 0C3.91648 0 3.66649 0.24999 3.66649 0.555554V1.11111H2.8776C1.78036 1.11111 0.888672 2.0028 0.888672 3.10003V13.0113C0.888672 14.1085 1.78036 15.0002 2.8776 15.0002ZM1.99983 3.10003C1.99983 2.61671 2.39427 2.22226 2.8776 2.22226H3.66649V2.77781C3.66649 3.08338 3.91648 3.33337 4.22204 3.33337C4.5276 3.33337 4.77759 3.08338 4.77759 2.77781V2.22226H11.4444V2.77781C11.4444 3.08338 11.6944 3.33337 11.9999 3.33337C12.3055 3.33337 12.5555 3.08338 12.5555 2.77781V2.22226H13.3444C13.8277 2.22226 14.2221 2.61671 14.2221 3.10003V4.7223H1.99983V3.10003ZM1.99983 5.83341H14.2222V13.0113C14.2222 13.4946 13.8278 13.8891 13.3445 13.8891H2.8776C2.39427 13.8891 1.99983 13.4946 1.99983 13.0113V5.83341Z" fill="#272727"/>
</svg>
